*
G04 Mass Parameters ***
*
G04 Image ***
*
%INC:\USERS\NANO\DOCUMENTS\CACHEDUINO\MTBOARD\PULSADORES_VER2.DRD*%
%ICAS*%
%MOIN*%
%IPPOS*%
%ASAXBY*%
G74*%FSLAN2X34Y34*%
*
G04 Aperture Definitions ***
*
%ADD10O,0.0500X0.1000*%
%ADD11R,0.0500X0.1000*%
%ADD12C,0.0900*%
%ADD13C,0.0200*%
%ADD14C,0.0500*%
%ADD15O,0.0500X0.1000*%
%ADD16R,0.0500X0.1000*%
%ADD17R,0.0600X0.0600*%
%ADD18C,0.0900*%
%ADD19C,0.0670*%
%ADD20C,0.0550*%
%ADD21C,0.0100*%
*
G04 Plot Data ***
*
G54D21*
G01X0057208Y-0021333D02*
X0056542D01*
X0057208Y-0020667D01*
Y-0020500D01*
X0057125Y-0020333D01*
X0056625D01*
X0056542Y-0020500D01*
X0056258Y-0021000D02*
X0055592D01*
X0055925Y-0020333D01*
X0056092D01*
Y-0021333D01*
X0044812D02*
X0044229D01*
Y-0020333D01*
X0043946Y-0021000D02*
X0043279D01*
X0043946Y-0021333D02*
Y-0020833D01*
X0043696Y-0020333D01*
X0043529D01*
X0043279Y-0020833D01*
Y-0021333D01*
X0042662D02*
Y-0020333D01*
X0042996D02*
X0042329D01*
X0041462Y-0021333D02*
X0041379Y-0021167D01*
Y-0020500D01*
X0041462Y-0020333D01*
X0041962D01*
X0042046Y-0020500D01*
Y-0021167D01*
X0041962Y-0021333D01*
X0041462D01*
X0040762D02*
Y-0020333D01*
X0041096D02*
X0040429D01*
X0065064Y-0019472D02*
Y-0018806D01*
X0065008Y-0019472D02*
X0065341D01*
X0065453Y-0019250D01*
Y-0019028D01*
X0065341Y-0018806D01*
X0065008D01*
X0064641Y-0019139D02*
X0064308D01*
X0064753Y-0019472D02*
X0064308D01*
Y-0018806D01*
X0064753D01*
X0063830Y-0019472D02*
Y-0018806D01*
X0064053D02*
X0063608D01*
X0063353Y-0019250D02*
X0062908D01*
X0063353Y-0019472D02*
Y-0019139D01*
X0063186Y-0018806D01*
X0063075D01*
X0062908Y-0019139D01*
Y-0019472D01*
X0062653D02*
X0062264D01*
Y-0018806D01*
X0061564Y-0019139D02*
X0061897D01*
X0062008Y-0019028D01*
Y-0018917D01*
X0061897Y-0018806D01*
X0061564D01*
Y-0019472D01*
X0061308Y-0019139D02*
X0060864D01*
X0060608Y-0018806D02*
Y-0019472D01*
X0060497Y-0019361D01*
X0060275Y-0018917D01*
X0060164Y-0018806D01*
Y-0019472D01*
X0059519D02*
X0059464Y-0019361D01*
Y-0018917D01*
X0059519Y-0018806D01*
X0059853D01*
X0059908Y-0018917D01*
Y-0019361D01*
X0059853Y-0019472D01*
X0059519D01*
X0059208Y-0018806D02*
Y-0019472D01*
X0059097Y-0019361D01*
X0058875Y-0018917D01*
X0058764Y-0018806D01*
Y-0019472D01*
X0057153Y-0019139D02*
X0057208Y-0019028D01*
Y-0018917D01*
X0057153Y-0018806D01*
X0056819D01*
X0056764Y-0018917D01*
Y-0019028D01*
X0056819Y-0019139D01*
X0057153D01*
X0057208Y-0019250D01*
Y-0019361D01*
X0057153Y-0019472D01*
X0056819D01*
X0056764Y-0019361D01*
Y-0019250D01*
X0056819Y-0019139D01*
X0043314Y-0019472D02*
X0043203Y-0019361D01*
X0043147Y-0019250D01*
Y-0019028D01*
X0043203Y-0018917D01*
X0043314Y-0018806D01*
X0043425D01*
X0043536Y-0018917D01*
X0043592Y-0019028D01*
Y-0019250D01*
X0043536Y-0019361D01*
X0043425Y-0019472D01*
X0043314D01*
X0042558D02*
X0042892Y-0018806D01*
X0042447D01*
X0041914Y-0019472D02*
X0041803Y-0019361D01*
X0041747Y-0019250D01*
Y-0019028D01*
X0041803Y-0018917D01*
X0041914Y-0018806D01*
X0042025D01*
X0042136Y-0018917D01*
X0042192Y-0019028D01*
Y-0019250D01*
X0042136Y-0019361D01*
X0042025Y-0019472D01*
X0041914D01*
X0041381D02*
X0041492D01*
Y-0019361D01*
X0041381D01*
Y-0019472D01*
X0040736D02*
X0040625Y-0019361D01*
X0040569Y-0019250D01*
Y-0019028D01*
X0040625Y-0018917D01*
X0040736Y-0018806D01*
X0040847D01*
X0040958Y-0018917D01*
X0041014Y-0019028D01*
Y-0019250D01*
X0040958Y-0019361D01*
X0040847Y-0019472D01*
X0040736D01*
X0056819Y-0017639D02*
X0057153D01*
X0057208Y-0017750D01*
Y-0017861D01*
X0057153Y-0017972D01*
X0056819D01*
X0056764Y-0017861D01*
Y-0017750D01*
X0056986Y-0017306D01*
X0056508Y-0017972D02*
X0056286D01*
X0056397D02*
Y-0017306D01*
X0056286Y-0017417D01*
X0043314Y-0017972D02*
X0043203Y-0017861D01*
X0043147Y-0017750D01*
Y-0017528D01*
X0043203Y-0017417D01*
X0043314Y-0017306D01*
X0043425D01*
X0043536Y-0017417D01*
X0043592Y-0017528D01*
Y-0017750D01*
X0043536Y-0017861D01*
X0043425Y-0017972D01*
X0043314D01*
X0042447Y-0017861D02*
X0042503Y-0017972D01*
X0042836D01*
X0042892Y-0017861D01*
Y-0017639D01*
X0042780Y-0017528D01*
X0042447D01*
Y-0017306D01*
X0042892D01*
X0041914Y-0017972D02*
X0041803Y-0017861D01*
X0041747Y-0017750D01*
Y-0017528D01*
X0041803Y-0017417D01*
X0041914Y-0017306D01*
X0042025D01*
X0042136Y-0017417D01*
X0042192Y-0017528D01*
Y-0017750D01*
X0042136Y-0017861D01*
X0042025Y-0017972D01*
X0041914D01*
X0041381D02*
X0041492D01*
Y-0017861D01*
X0041381D01*
Y-0017972D01*
X0040736D02*
X0040625Y-0017861D01*
X0040569Y-0017750D01*
Y-0017528D01*
X0040625Y-0017417D01*
X0040736Y-0017306D01*
X0040847D01*
X0040958Y-0017417D01*
X0041014Y-0017528D01*
Y-0017750D01*
X0040958Y-0017861D01*
X0040847Y-0017972D01*
X0040736D01*
X0057153Y-0016139D02*
X0057208Y-0016028D01*
Y-0015917D01*
X0057153Y-0015806D01*
X0056819D01*
X0056764Y-0015917D01*
Y-0016028D01*
X0056819Y-0016139D01*
X0057153D01*
X0057208Y-0016250D01*
Y-0016361D01*
X0057153Y-0016472D01*
X0056819D01*
X0056764Y-0016361D01*
Y-0016250D01*
X0056819Y-0016139D01*
X0043314Y-0016472D02*
X0043203Y-0016361D01*
X0043147Y-0016250D01*
Y-0016028D01*
X0043203Y-0015917D01*
X0043314Y-0015806D01*
X0043425D01*
X0043536Y-0015917D01*
X0043592Y-0016028D01*
Y-0016250D01*
X0043536Y-0016361D01*
X0043425Y-0016472D01*
X0043314D01*
X0042892Y-0016250D02*
X0042447D01*
X0042669Y-0015806D01*
X0042780D01*
Y-0016472D01*
X0041914D02*
X0041803Y-0016361D01*
X0041747Y-0016250D01*
Y-0016028D01*
X0041803Y-0015917D01*
X0041914Y-0015806D01*
X0042025D01*
X0042136Y-0015917D01*
X0042192Y-0016028D01*
Y-0016250D01*
X0042136Y-0016361D01*
X0042025Y-0016472D01*
X0041914D01*
X0041381D02*
X0041492D01*
Y-0016361D01*
X0041381D01*
Y-0016472D01*
X0040736D02*
X0040625Y-0016361D01*
X0040569Y-0016250D01*
Y-0016028D01*
X0040625Y-0015917D01*
X0040736Y-0015806D01*
X0040847D01*
X0040958Y-0015917D01*
X0041014Y-0016028D01*
Y-0016250D01*
X0040958Y-0016361D01*
X0040847Y-0016472D01*
X0040736D01*
X0057153Y-0014639D02*
X0057208Y-0014528D01*
Y-0014417D01*
X0057153Y-0014306D01*
X0056819D01*
X0056764Y-0014417D01*
Y-0014528D01*
X0056819Y-0014639D01*
X0057153D01*
X0057208Y-0014750D01*
Y-0014861D01*
X0057153Y-0014972D01*
X0056819D01*
X0056764Y-0014861D01*
Y-0014750D01*
X0056819Y-0014639D01*
X0043536D02*
X0043203D01*
X0043147Y-0014528D01*
Y-0014417D01*
X0043203Y-0014306D01*
X0043536D01*
X0043592Y-0014417D01*
Y-0014528D01*
X0043369Y-0014972D01*
X0042447Y-0014861D02*
X0042558Y-0014972D01*
X0042780D01*
X0042892Y-0014861D01*
Y-0014750D01*
X0042669Y-0014528D01*
X0042892Y-0014306D01*
X0042447D01*
X0041914Y-0014972D02*
X0041803Y-0014861D01*
X0041747Y-0014750D01*
Y-0014528D01*
X0041803Y-0014417D01*
X0041914Y-0014306D01*
X0042025D01*
X0042136Y-0014417D01*
X0042192Y-0014528D01*
Y-0014750D01*
X0042136Y-0014861D01*
X0042025Y-0014972D01*
X0041914D01*
X0041381D02*
X0041492D01*
Y-0014861D01*
X0041381D01*
Y-0014972D01*
X0040736D02*
X0040625Y-0014861D01*
X0040569Y-0014750D01*
Y-0014528D01*
X0040625Y-0014417D01*
X0040736Y-0014306D01*
X0040847D01*
X0040958Y-0014417D01*
X0041014Y-0014528D01*
Y-0014750D01*
X0040958Y-0014861D01*
X0040847Y-0014972D01*
X0040736D01*
X0057208Y-0013472D02*
X0056764D01*
X0057208Y-0013028D01*
Y-0012917D01*
X0057153Y-0012806D01*
X0056819D01*
X0056764Y-0012917D01*
X0043536Y-0013139D02*
X0043592Y-0013028D01*
Y-0012917D01*
X0043536Y-0012806D01*
X0043203D01*
X0043147Y-0012917D01*
Y-0013028D01*
X0043203Y-0013139D01*
X0043536D01*
X0043592Y-0013250D01*
Y-0013361D01*
X0043536Y-0013472D01*
X0043203D01*
X0043147Y-0013361D01*
Y-0013250D01*
X0043203Y-0013139D01*
X0042892Y-0013472D02*
X0042447D01*
X0042892Y-0013028D01*
Y-0012917D01*
X0042836Y-0012806D01*
X0042503D01*
X0042447Y-0012917D01*
X0041914Y-0013472D02*
X0041803Y-0013361D01*
X0041747Y-0013250D01*
Y-0013028D01*
X0041803Y-0012917D01*
X0041914Y-0012806D01*
X0042025D01*
X0042136Y-0012917D01*
X0042192Y-0013028D01*
Y-0013250D01*
X0042136Y-0013361D01*
X0042025Y-0013472D01*
X0041914D01*
X0041381D02*
X0041492D01*
Y-0013361D01*
X0041381D01*
Y-0013472D01*
X0040736D02*
X0040625Y-0013361D01*
X0040569Y-0013250D01*
Y-0013028D01*
X0040625Y-0012917D01*
X0040736Y-0012806D01*
X0040847D01*
X0040958Y-0012917D01*
X0041014Y-0013028D01*
Y-0013250D01*
X0040958Y-0013361D01*
X0040847Y-0013472D01*
X0040736D01*
X0065612Y-0011333D02*
X0065112D01*
X0065779Y-0011833D02*
X0065112D01*
Y-0010833D01*
X0065779D01*
X0064496Y-0011833D02*
Y-0010833D01*
X0064829D02*
X0064162D01*
X0063296Y-0011833D02*
X0063212Y-0011667D01*
Y-0011000D01*
X0063296Y-0010833D01*
X0063796D01*
X0063879Y-0011000D01*
Y-0011667D01*
X0063796Y-0011833D01*
X0063296D01*
X0062929Y-0010833D02*
Y-0011833D01*
X0062762Y-0011667D01*
X0062429Y-0011000D01*
X0062262Y-0010833D01*
Y-0011833D01*
X0056425D02*
Y-0011333D01*
X0056758Y-0010833D02*
X0056508Y-0011333D01*
X0056342D01*
X0056092Y-0010833D01*
X0055475Y-0011833D02*
Y-0010833D01*
X0055808D02*
X0055142D01*
X0054525Y-0011500D02*
X0054858Y-0011833D01*
X0054192Y-0011667D02*
X0054275Y-0011833D01*
X0054608D01*
X0054692Y-0011667D01*
X0054858Y-0011500D01*
Y-0011000D01*
X0054775Y-0010833D01*
X0054275D01*
X0054192Y-0011000D01*
Y-0011667D01*
X0049908Y-0011833D02*
X0049325D01*
Y-0010833D01*
X0048458Y-0011833D02*
X0048375Y-0011667D01*
Y-0011000D01*
X0048458Y-0010833D01*
X0048958D01*
X0049042Y-0011000D01*
Y-0011667D01*
X0048958Y-0011833D01*
X0048458D01*
X0047758D02*
Y-0010833D01*
X0048092D02*
X0047425D01*
X0042087Y-0011833D02*
Y-0010833D01*
X0041921Y-0011000D01*
X0041754Y-0011333D01*
X0041587Y-0011000D01*
X0041421Y-0010833D01*
Y-0011833D01*
X0041137Y-0011500D02*
X0040471D01*
X0041137Y-0011833D02*
Y-0011333D01*
X0040887Y-0010833D01*
X0040721D01*
X0040471Y-0011333D01*
Y-0011833D01*
X0040187D02*
X0039854D01*
X0040021D02*
Y-0010833D01*
X0040187D02*
X0039854D01*
X0038821Y-0011833D02*
Y-0010833D01*
X0038737Y-0011833D02*
X0039237D01*
X0039404Y-0011500D01*
Y-0011167D01*
X0039237Y-0010833D01*
X0038737D01*
X0035650Y-0011833D02*
Y-0010833D01*
X0035483Y-0011000D01*
X0035317Y-0011333D01*
X0035150Y-0011000D01*
X0034983Y-0010833D01*
Y-0011833D01*
X0034367D02*
Y-0011333D01*
X0034700Y-0010833D02*
X0034450Y-0011333D01*
X0034283D01*
X0034033Y-0010833D01*
X0033750Y-0011000D02*
X0033667Y-0010833D01*
X0033167D01*
X0033083Y-0011000D01*
Y-0011167D01*
X0033167Y-0011333D01*
X0033667D01*
X0033750Y-0011500D01*
Y-0011667D01*
X0033667Y-0011833D01*
X0033167D01*
X0033083Y-0011667D01*
X0055937Y-0009833D02*
Y-0008833D01*
X0056271D02*
X0055604D01*
X0055071Y-0009333D02*
X0055321Y-0009833D01*
X0054654Y-0009333D02*
X0055154D01*
X0055321Y-0009167D01*
Y-0009000D01*
X0055154Y-0008833D01*
X0054654D01*
Y-0009833D01*
X0054371Y-0009500D02*
X0053704D01*
X0054371Y-0009833D02*
Y-0009333D01*
X0054121Y-0008833D01*
X0053954D01*
X0053704Y-0009333D01*
Y-0009833D01*
X0053421Y-0009333D02*
X0052754D01*
X0053421Y-0009833D02*
Y-0008833D01*
X0052754Y-0009833D02*
Y-0008833D01*
X0052471Y-0009667D02*
X0052387Y-0009833D01*
X0051887D01*
X0051804Y-0009667D01*
Y-0009000D01*
X0051887Y-0008833D01*
X0052387D01*
X0052471Y-0009000D01*
X0050196Y-0009833D02*
X0049612D01*
Y-0008833D01*
X0049329Y-0009833D02*
X0048746D01*
Y-0008833D01*
X0048462Y-0009833D02*
X0048129D01*
X0048296D02*
Y-0008833D01*
X0048462D02*
X0048129D01*
X0047429Y-0009333D02*
X0047679Y-0009833D01*
X0047012Y-0009333D02*
X0047512D01*
X0047679Y-0009167D01*
Y-0009000D01*
X0047512Y-0008833D01*
X0047012D01*
Y-0009833D01*
X0046146D02*
Y-0008833D01*
X0046062Y-0009833D02*
X0046562D01*
X0046729Y-0009500D01*
Y-0009167D01*
X0046562Y-0008833D01*
X0046062D01*
X0002350Y0007750D02*
Y0007250D01*
X0002850Y0007750D02*
X0002350D01*
X0002850Y0007250D02*
Y0007750D01*
X0002350Y0007250D02*
X0002850D01*
Y0007500D02*
X0002350D01*
X0002600Y0007750D02*
Y0007250D01*
X0011950Y0013050D02*
Y0012550D01*
X0012450Y0013050D02*
X0011950D01*
X0012450Y0012550D02*
Y0013050D01*
X0011950Y0012550D02*
X0012450D01*
Y0012800D02*
X0011950D01*
X0012200Y0013050D02*
Y0012550D01*
X0034575Y-0019250D02*
X0034075D01*
X0034325Y-0019000D02*
Y-0019500D01*
X0034075Y-0017500D02*
Y-0018000D01*
X0034575Y-0017500D02*
X0034075D01*
X0034575Y-0018000D02*
Y-0017500D01*
X0034075Y-0018000D02*
X0034575D01*
Y-0017500D02*
X0034075Y-0018000D01*
X0034575D02*
X0034075Y-0017500D01*
X0034325Y-0016000D02*
X0034075Y-0016250D01*
X0034575D02*
X0034325Y-0016000D01*
Y-0016500D02*
X0034575Y-0016250D01*
X0034075D02*
X0034325Y-0016500D01*
X0034575Y-0014500D02*
X0034075Y-0015000D01*
X0034575D02*
X0034075Y-0014500D01*
Y-0013000D02*
Y-0013500D01*
X0034575Y-0013000D02*
X0034075D01*
X0034575Y-0013500D02*
Y-0013000D01*
X0034075Y-0013500D02*
X0034575D01*
Y-0013250D02*
X0034075D01*
X0034325Y-0013000D02*
Y-0013500D01*
X0069800Y-0022050D02*
X0032450D01*
X0069750Y-0022000D02*
X0032500D01*
X0069750Y-0020000D02*
X0032500D01*
X0069750Y-0018500D02*
X0032500D01*
X0069750Y-0017000D02*
X0032500D01*
X0069750Y-0015500D02*
X0032500D01*
X0069750Y-0014000D02*
X0032500D01*
X0069750Y-0012500D02*
X0032500D01*
X0069750Y-0012450D02*
X0032500D01*
X0069750Y-0010500D02*
X0032500D01*
X0069750Y-0010450D02*
X0032500D01*
X0069750Y-0008500D02*
X0032500D01*
X0069800Y-0008450D02*
X0032450D01*
X0069800Y-0022000D02*
Y-0008500D01*
X0069750Y-0022000D02*
Y-0008500D01*
X0058208Y-0022000D02*
Y-0010500D01*
X0052658Y-0022000D02*
Y-0010500D01*
X0044592Y-0020000D02*
Y-0010500D01*
X0036200Y-0020000D02*
Y-0010500D01*
X0036150Y-0020000D02*
Y-0010500D01*
X0032450Y-0022000D02*
Y-0008500D01*
X0032500Y-0022000D02*
Y-0008500D01*
X0000000Y0014000D02*
X0017100D01*
Y0002100D01*
X0015000Y0000000D01*
X0002000D01*
X0000000Y0002000D01*
Y0014000D01*
X0000350Y0006250D02*
Y0005750D01*
X0000850Y0006250D02*
X0000350D01*
X0000850Y0005750D02*
Y0006250D01*
X0000350Y0005750D02*
X0000850D01*
Y0006250D02*
X0000350Y0005750D01*
X0000850D02*
X0000350Y0006250D01*
Y0008250D02*
Y0007750D01*
X0000850Y0008250D02*
X0000350D01*
X0000850Y0007750D02*
Y0008250D01*
X0000350Y0007750D02*
X0000850D01*
Y0008250D02*
X0000350Y0007750D01*
X0000850D02*
X0000350Y0008250D01*
X0005350Y0006250D02*
Y0005750D01*
X0005850Y0006250D02*
X0005350D01*
X0005850Y0005750D02*
Y0006250D01*
X0005350Y0005750D02*
X0005850D01*
Y0006250D02*
X0005350Y0005750D01*
X0005850D02*
X0005350Y0006250D01*
Y0008250D02*
Y0007750D01*
X0005850Y0008250D02*
X0005350D01*
X0005850Y0007750D02*
Y0008250D01*
X0005350Y0007750D02*
X0005850D01*
Y0008250D02*
X0005350Y0007750D01*
X0005850D02*
X0005350Y0008250D01*
X0003100Y0004500D02*
X0002850Y0004250D01*
X0003350D02*
X0003100Y0004500D01*
Y0004000D02*
X0003350Y0004250D01*
X0002850D02*
X0003100Y0004000D01*
Y0010000D02*
X0002850Y0009750D01*
X0003350D02*
X0003100Y0010000D01*
Y0009500D02*
X0003350Y0009750D01*
X0002850D02*
X0003100Y0009500D01*
X0003350Y0005250D02*
X0002850D01*
X0003100Y0005500D02*
Y0005000D01*
X0003350Y0008750D02*
X0002850D01*
X0003100Y0009000D02*
Y0008500D01*
X0005750Y0002550D02*
Y0002050D01*
X0006250Y0002550D02*
X0005750D01*
X0006250Y0002050D02*
Y0002550D01*
X0005750Y0002050D02*
X0006250D01*
Y0002550D02*
X0005750Y0002050D01*
X0006250D02*
X0005750Y0002550D01*
Y0004550D02*
Y0004050D01*
X0006250Y0004550D02*
X0005750D01*
X0006250Y0004050D02*
Y0004550D01*
X0005750Y0004050D02*
X0006250D01*
Y0004550D02*
X0005750Y0004050D01*
X0006250D02*
X0005750Y0004550D01*
X0010750Y0002550D02*
Y0002050D01*
X0011250Y0002550D02*
X0010750D01*
X0011250Y0002050D02*
Y0002550D01*
X0010750Y0002050D02*
X0011250D01*
Y0002550D02*
X0010750Y0002050D01*
X0011250D02*
X0010750Y0002550D01*
Y0004550D02*
Y0004050D01*
X0011250Y0004550D02*
X0010750D01*
X0011250Y0004050D02*
Y0004550D01*
X0010750Y0004050D02*
X0011250D01*
Y0004550D02*
X0010750Y0004050D01*
X0011250D02*
X0010750Y0004550D01*
X0008500Y0000800D02*
X0008250Y0000550D01*
X0008750D02*
X0008500Y0000800D01*
Y0000300D02*
X0008750Y0000550D01*
X0008250D02*
X0008500Y0000300D01*
Y0006300D02*
X0008250Y0006050D01*
X0008750D02*
X0008500Y0006300D01*
Y0005800D02*
X0008750Y0006050D01*
X0008250D02*
X0008500Y0005800D01*
X0008750Y0001550D02*
X0008250D01*
X0008500Y0001800D02*
Y0001300D01*
X0008750Y0005050D02*
X0008250D01*
X0008500Y0005300D02*
Y0004800D01*
X0011250Y0006150D02*
Y0005650D01*
X0011750Y0006150D02*
X0011250D01*
X0011750Y0005650D02*
Y0006150D01*
X0011250Y0005650D02*
X0011750D01*
Y0006150D02*
X0011250Y0005650D01*
X0011750D02*
X0011250Y0006150D01*
Y0008150D02*
Y0007650D01*
X0011750Y0008150D02*
X0011250D01*
X0011750Y0007650D02*
Y0008150D01*
X0011250Y0007650D02*
X0011750D01*
Y0008150D02*
X0011250Y0007650D01*
X0011750D02*
X0011250Y0008150D01*
X0016250Y0006150D02*
Y0005650D01*
X0016750Y0006150D02*
X0016250D01*
X0016750Y0005650D02*
Y0006150D01*
X0016250Y0005650D02*
X0016750D01*
Y0006150D02*
X0016250Y0005650D01*
X0016750D02*
X0016250Y0006150D01*
Y0008150D02*
Y0007650D01*
X0016750Y0008150D02*
X0016250D01*
X0016750Y0007650D02*
Y0008150D01*
X0016250Y0007650D02*
X0016750D01*
Y0008150D02*
X0016250Y0007650D01*
X0016750D02*
X0016250Y0008150D01*
X0014000Y0004400D02*
X0013750Y0004150D01*
X0014250D02*
X0014000Y0004400D01*
Y0003900D02*
X0014250Y0004150D01*
X0013750D02*
X0014000Y0003900D01*
Y0009900D02*
X0013750Y0009650D01*
X0014250D02*
X0014000Y0009900D01*
Y0009400D02*
X0014250Y0009650D01*
X0013750D02*
X0014000Y0009400D01*
X0014250Y0005150D02*
X0013750D01*
X0014000Y0005400D02*
Y0004900D01*
X0014250Y0008650D02*
X0013750D01*
X0014000Y0008900D02*
Y0008400D01*
X0005850Y0009950D02*
Y0009450D01*
X0006350Y0009950D02*
X0005850D01*
X0006350Y0009450D02*
Y0009950D01*
X0005850Y0009450D02*
X0006350D01*
Y0009950D02*
X0005850Y0009450D01*
X0006350D02*
X0005850Y0009950D01*
Y0011950D02*
Y0011450D01*
X0006350Y0011950D02*
X0005850D01*
X0006350Y0011450D02*
Y0011950D01*
X0005850Y0011450D02*
X0006350D01*
Y0011950D02*
X0005850Y0011450D01*
X0006350D02*
X0005850Y0011950D01*
X0010850Y0009950D02*
Y0009450D01*
X0011350Y0009950D02*
X0010850D01*
X0011350Y0009450D02*
Y0009950D01*
X0010850Y0009450D02*
X0011350D01*
Y0009950D02*
X0010850Y0009450D01*
X0011350D02*
X0010850Y0009950D01*
Y0011950D02*
Y0011450D01*
X0011350Y0011950D02*
X0010850D01*
X0011350Y0011450D02*
Y0011950D01*
X0010850Y0011450D02*
X0011350D01*
Y0011950D02*
X0010850Y0011450D01*
X0011350D02*
X0010850Y0011950D01*
X0008600Y0008200D02*
X0008350Y0007950D01*
X0008850D02*
X0008600Y0008200D01*
Y0007700D02*
X0008850Y0007950D01*
X0008350D02*
X0008600Y0007700D01*
Y0013700D02*
X0008350Y0013450D01*
X0008850D02*
X0008600Y0013700D01*
Y0013200D02*
X0008850Y0013450D01*
X0008350D02*
X0008600Y0013200D01*
X0008850Y0008950D02*
X0008350D01*
X0008600Y0009200D02*
Y0008700D01*
X0008850Y0012450D02*
X0008350D01*
X0008600Y0012700D02*
Y0012200D01*
X0000850Y0011150D02*
X0000350Y0010650D01*
X0000850D02*
X0000350Y0011150D01*
X0001850D02*
X0001350Y0010650D01*
X0001850D02*
X0001350Y0011150D01*
X0000850Y0013250D02*
X0000350Y0012750D01*
X0000850D02*
X0000350Y0013250D01*
X0001850D02*
X0001350Y0012750D01*
X0001850D02*
X0001350Y0013250D01*
X0002850D02*
X0002350Y0012750D01*
X0002850D02*
X0002350Y0013250D01*
X0003850D02*
X0003350Y0012750D01*
X0003850D02*
X0003350Y0013250D01*
X0004850D02*
X0004350Y0012750D01*
X0004850D02*
X0004350Y0013250D01*
X0005850D02*
X0005350Y0012750D01*
X0005850D02*
X0005350Y0013250D01*
M02*
