*
G04 Mass Parameters ***
*
G04 Image ***
*
%INC:\USERS\NANO\DOCUMENTS\CACHEDUINO\MTBOARD\PULSADORES_VER2.SMB*%
%ICAS*%
%MOIN*%
%IPPOS*%
%ASAXBY*%
G74*%FSLAN2X34Y34*%
*
G04 Aperture Definitions ***
*
%ADD10O,0.0500X0.1000*%
%ADD11R,0.0500X0.1000*%
%ADD12C,0.0900*%
%ADD13C,0.0200*%
%ADD14C,0.0500*%
%ADD15O,0.0500X0.1000*%
%ADD16R,0.0500X0.1000*%
%ADD17R,0.0600X0.0600*%
%ADD18C,0.0900*%
%ADD19C,0.0670*%
%ADD20C,0.0550*%
*
G04 Plot Data ***
*
G54D15*
X0001600Y0010900D03*
Y0013000D03*
X0002600D03*
X0003600D03*
X0004600D03*
X0005600D03*
G54D16*
X0000600Y0010900D03*
Y0013000D03*
G54D17*
X0002000Y0006550D03*
Y0005250D03*
X0016000Y0012750D03*
Y0011450D03*
X0014700Y0012750D03*
Y0011450D03*
X0013300Y0012750D03*
Y0011450D03*
G54D19*
X0000600Y0006000D03*
Y0008000D03*
X0005600Y0006000D03*
Y0008000D03*
X0003100Y0004250D03*
Y0009750D03*
X0006000Y0002300D03*
Y0004300D03*
X0011000Y0002300D03*
Y0004300D03*
X0008500Y0000550D03*
Y0006050D03*
X0011500Y0005900D03*
Y0007900D03*
X0016500Y0005900D03*
Y0007900D03*
X0014000Y0004150D03*
Y0009650D03*
X0006100Y0009700D03*
Y0011700D03*
X0011100Y0009700D03*
Y0011700D03*
X0008600Y0007950D03*
Y0013450D03*
G54D20*
X0002600Y0007500D03*
X0012200Y0012800D03*
M02*
