%
T1C0.0280F200S100
X002600Y007500
X012200Y012800
T2C0.0390F200S100
X000600Y010900
X001600Y010900
X001600Y013000
X000600Y013000
X002600Y013000
X003600Y013000
X004600Y013000
X005600Y013000
T4C0.0500F200S100
X000600Y006000
X000600Y008000
X005600Y006000
X005600Y008000
X006000Y002300
X006000Y004300
X006100Y009700
X006100Y011700
X011000Y002300
X011000Y004300
X011100Y009700
X011100Y011700
X011500Y005900
X011500Y007900
X016500Y005900
X016500Y007900
T3C0.0400F200S100
X003100Y004250
X003100Y009750
X008500Y000550
X008500Y006050
X008600Y007950
X008600Y013450
X014000Y004150
X014000Y009650
M30
